<!DOCTYPE svg PUBLIC "-//W3C//DTD SVG 1.1//EN" "http://www.w3.org/Graphics/SVG/1.1/DTD/svg11.dtd">

<!-- Uploaded to: SVG Repo, www.svgrepo.com, Transformed by: SVG Repo Mixer Tools -->
<svg version="1.1" id="Layer_1" xmlns="http://www.w3.org/2000/svg" xmlns:xlink="http://www.w3.org/1999/xlink" viewBox="0 0 511.999 511.999" xml:space="preserve" width="32px" height="32px" fill="#000000">

<g id="SVGRepo_bgCarrier" stroke-width="0"/>

<g id="SVGRepo_tracerCarrier" stroke-linecap="round" stroke-linejoin="round"/>

<g id="SVGRepo_iconCarrier"> <path style="fill:#26a366AAA9AF;" d="M258.225,57.81c-15.938,0-28.905-12.967-28.905-28.905S242.286,0,258.225,0 c15.938,0,28.904,12.967,28.904,28.905S274.164,57.81,258.225,57.81z"/> <path style="fill:#26a3667F7F83;" d="M258.225,57.81c0-28.905,0-48.699,0-57.81c15.938,0,28.904,12.967,28.904,28.905 S274.164,57.81,258.225,57.81z"/> <path style="fill:#26a366CCCCCF;" d="M449.527,234.324H66.923c0-105.485,85.819-191.303,191.303-191.303S449.527,128.839,449.527,234.324z "/> <path style="fill:#26a366AAA9AF;" d="M449.527,234.324H258.225c0-105.485,0-191.303,0-191.303 C363.709,43.021,449.527,128.839,449.527,234.324z"/> <rect x="30.906" y="217.241" style="fill:#26a366EDEDEE;" width="454.629" height="34.168"/> <rect x="258.227" y="217.241" style="fill:#26a366DDDCDF;" width="227.32" height="34.168"/> <path style="fill:#26a366;" d="M26.452,412.457l41.587-40.028c10.146-9.765,18.854-20.92,25.866-33.131l10.166-17.704 c12.681-22.083,36.203-35.7,61.668-35.7H298.52c12.532,0,22.69,10.159,22.69,22.69l0,0c0,12.532-10.159,22.69-22.69,22.69h-53.785 h-26.193c-12.532,0-22.69,10.159-22.69,22.69l0,0c0,12.532,10.159,22.69,22.69,22.69h83.316c17.692,0,34.825-6.199,48.422-17.519 l70.465-58.669c10.178-8.474,25.241-7.207,33.867,2.768c8.895,10.286,7.141,26.226-3.31,34.928L337.94,434.633 c-18.974,16.147-43.075,25.013-67.989,25.013H164.033c-13.934,0-27.347,5.294-37.525,14.811L86.36,511.999"/> </g>

</svg>