<!DOCTYPE svg PUBLIC "-//W3C//DTD SVG 1.1//EN" "http://www.w3.org/Graphics/SVG/1.1/DTD/svg11.dtd">

<!-- Uploaded to: SVG Repo, www.svgrepo.com, Transformed by: SVG Repo Mixer Tools -->
<svg height="32px" width="32px" version="1.1" id="Layer_1" xmlns="http://www.w3.org/2000/svg" xmlns:xlink="http://www.w3.org/1999/xlink" viewBox="0 0 511.972 511.972" xml:space="preserve" fill="#000000">

<g id="SVGRepo_bgCarrier" stroke-width="0"/>

<g id="SVGRepo_tracerCarrier" stroke-linecap="round" stroke-linejoin="round"/>

<g id="SVGRepo_iconCarrier"> <path style="fill:#26a366;" d="M377.021,485.974c-1.719,0-3.453-0.422-5.016-1.25L54.725,315.685 c-2.078-1.109-3.734-2.875-4.703-5.03c-4.344-9.641-41.42-96.511-8.437-178.163c18.593-46.013,47.138-80.761,84.823-103.291 C158.828,9.827,196.905,0,239.558,0c38.639,0,80.277,8.562,117.229,24.107c34.529,14.53,62.747,34.295,77.401,54.216 c23.812,32.343,39.279,70.622,46.014,113.76c5.828,37.451,4.812,78.715-2.969,119.322c-14.812,77.386-52.825,146.898-94.572,172.944 C380.943,485.427,378.974,485.974,377.021,485.974z"/> <path style="fill:#04070b;" d="M476.156,171.177c-11.124-1.625-45.56-6.843-86.87-15.046 c-66.153-13.171-119.618-27.982-154.648-42.873c-3.25-1.374-6.984-1.062-9.953,0.859l-57.122,36.92 c-3.031,1.953-4.875,5.312-4.89,8.922c0,2.547-0.031,62.716,15.155,93.886c5.343,10.983,27.311,28.17,149.695,72.434 c64.466,23.312,128.104,43.545,133.119,45.123c6.952-18.969,12.607-39.201,16.592-59.997c7.781-40.607,8.797-81.871,2.969-119.322 C479.093,184.974,477.734,178.006,476.156,171.177z"/> <circle style="fill:#656D78;" cx="213.826" cy="159.986" r="40.482"/> <g> <path style="fill:#434A54;" d="M213.826,108.853c-28.202,0-51.153,22.936-51.153,51.138c0,28.201,22.952,51.138,51.153,51.138 s51.138-22.937,51.138-51.138C264.965,131.789,242.028,108.853,213.826,108.853z M213.826,189.801 c-16.437,0-29.811-13.374-29.811-29.811s13.375-29.811,29.811-29.811s29.811,13.374,29.811,29.811S230.263,189.801,213.826,189.801 z"/> <path style="fill:#434A54;" d="M221.373,167.538c-4.171,4.155-10.921,4.155-15.093,0c-4.156-4.172-4.156-10.922,0-15.094 c4.171-4.155,10.921-4.155,15.093,0C225.529,156.616,225.529,163.366,221.373,167.538z"/> <path style="fill:#434A54;" d="M351.007,511.972c-1.688,0-3.405-0.406-4.999-1.25L37.523,346.356 c-5.203-2.766-7.171-9.219-4.406-14.421c2.766-5.203,9.234-7.172,14.421-4.406l308.5,164.366c5.202,2.766,7.171,9.218,4.39,14.421 C358.521,509.925,354.819,511.972,351.007,511.972z"/> </g> <path style="opacity:0.2;fill:#FFFFFF;enable-background:new ;" d="M480.203,192.083c-6.734-43.138-22.201-81.417-46.014-113.76 c-14.654-19.921-42.872-39.686-77.401-54.216C319.837,8.561,278.198,0,239.559,0c-3.593,0-7.14,0.078-10.671,0.219 c35.545,1.405,72.997,9.765,106.557,23.889c34.529,14.53,62.746,34.295,77.418,54.216c23.795,32.343,39.279,70.622,46.014,113.76 c5.827,37.451,4.812,78.715-2.969,119.322c-14.297,74.636-50.154,141.93-90.137,169.991l6.234,3.328 c1.562,0.828,3.297,1.25,5.016,1.25c1.953,0,3.922-0.547,5.641-1.625c41.747-26.046,79.761-95.559,94.572-172.944 C485.015,270.798,486.031,229.534,480.203,192.083z"/> </g>

</svg>