<!DOCTYPE svg PUBLIC "-//W3C//DTD SVG 1.1//EN" "http://www.w3.org/Graphics/SVG/1.1/DTD/svg11.dtd">

<!-- Uploaded to: SVG Repo, www.svgrepo.com, Transformed by: SVG Repo Mixer Tools -->
<svg width="32px" height="32px" viewBox="0 0 1024 1024" class="icon" version="1.1" xmlns="http://www.w3.org/2000/svg" fill="#000000">

<g id="SVGRepo_bgCarrier" stroke-width="0"/>

<g id="SVGRepo_tracerCarrier" stroke-linecap="round" stroke-linejoin="round"/>

<g id="SVGRepo_iconCarrier">

<path d="M832 618.666667a106.666667 106.666667 0 1 0 0 213.333333 106.666667 106.666667 0 0 0 0-213.333333z m0 170.666666a64.021333 64.021333 0 0 1 0-128 64.021333 64.021333 0 0 1 0 128zM234.666667 618.666667a106.666667 106.666667 0 1 0 0.021333 213.354666A106.666667 106.666667 0 0 0 234.666667 618.666667z m0 170.666666a64 64 0 1 1 0-128 64 64 0 0 1 0 128z" fill="#455A64"/>

<path d="M832 725.333333l-85.333333-170.666666M234.666667 725.333333l85.333333-149.333333" fill="none"/>

<path d="M384 725.333333h298.666667c0-104.384 76.48-145.664 141.909333-152.874666C855.274667 569.045333 853.333333 533.333333 853.333333 533.333333c-21.333333-106.666667-106.666667-192-170.666666-234.666666l-64 21.333333 42.666666 149.333333s21.333333 170.666667-128 170.666667h-149.333333v85.333333z" fill="#26a366"/>

<path d="M234.666667 554.709333c128 0 170.666667 106.666667 170.666666 106.666667l42.666667-21.333333c-21.333333-64-64-85.333333-64-85.333334l21.333333-106.666666H64s4.501333 44.885333 42.666667 64c42.666667 21.333333 128 42.666667 128 42.666666zM618.666667 320s-21.333333-64-21.333334-106.666667 42.666667-42.666667 42.666667-42.666666h64v85.333333h-42.666667s106.666667 106.666667 149.333334 170.666667l-192-106.666667z" fill="#26a366"/>

<path d="M810.666667 426.666667v128h59.690666c4.714667-10.368 4.309333 6.336 4.309334 6.336-10.069333-50.304-34.410667-95.765333-64-134.336zM704 170.666667v85.333333a42.666667 42.666667 0 0 0 0-85.333333z" fill="#FFC107"/>

<path d="M640 213.333333l-128 64" fill="none"/>

<path d="M661.333333 725.397333a170.666667 170.666667 0 0 1 291.328-120.746666M405.333333 725.184a170.026667 170.026667 0 0 0-49.984-120.512 170.645333 170.645333 0 0 0-241.365333 0" fill="none"/>

<path d="M426.666667 452.074667s-99.541333 26.176-188.437334 26.176S42.666667 448.042667 42.666667 448.042667v-10.666667C42.666667 407.893333 77.205333 384 106.666667 384h259.456C395.562667 384 426.666667 407.893333 426.666667 437.376v14.698667z" fill="#37474F"/>

</g>

</svg>