<!DOCTYPE svg PUBLIC "-//W3C//DTD SVG 1.1//EN" "http://www.w3.org/Graphics/SVG/1.1/DTD/svg11.dtd">

<!-- Uploaded to: SVG Repo, www.svgrepo.com, Transformed by: SVG Repo Mixer Tools -->
<svg width="32px" height="32px" viewBox="0 0 1024 1024" class="icon" version="1.1" xmlns="http://www.w3.org/2000/svg" fill="#000000">

<g id="SVGRepo_bgCarrier" stroke-width="0"/>

<g id="SVGRepo_tracerCarrier" stroke-linecap="round" stroke-linejoin="round"/>

<g id="SVGRepo_iconCarrier">

<path d="M287.434 135.586l44.297 161.358-265.566-18.282c-0.766 0-1.395-1.953-2.165-1.892l223.434-141.184zM960 282.437H693.833l43.3-146.851z" fill="#26a366"/>

<path d="M692.837 296.944H331.731l-44.297-161.358h449.699z" fill="#26a366"/>

<path d="M692.837 296.944H331.731l-44.297-161.358h449.699z" fill=""/>

<path d="M693.833 282.437L515.577 888.414 332.349 278.662z" fill="#26a366"/>

<path d="M332.349 278.662l183.228 609.752L66.165 278.662z" fill="#26a366"/>

<path d="M332.349 278.662l183.228 609.752L66.165 278.662z" fill=""/>

<path d="M693.833 282.437H960L515.577 888.414z" fill="#26a366"/>

<path d="M693.833 282.437H960L515.577 888.414z" fill=""/>

</g>

</svg>